<?xml version="1.0" encoding="UTF-8" standalone="no"?>
<!-- Created with Inkscape (http://www.inkscape.org/) -->

<svg
   width="210mm"
   height="297mm"
   viewBox="0 0 210 297"
   version="1.1"
   id="svg7877"
   xml:space="preserve"
   inkscape:version="1.2.1 (9c6d41e4, 2022-07-14)"
   sodipodi:docname="graph_import.svg"
   xmlns:inkscape="http://www.inkscape.org/namespaces/inkscape"
   xmlns:sodipodi="http://sodipodi.sourceforge.net/DTD/sodipodi-0.dtd"
   xmlns="http://www.w3.org/2000/svg"
   xmlns:svg="http://www.w3.org/2000/svg"><sodipodi:namedview
     id="namedview7879"
     pagecolor="#ffffff"
     bordercolor="#000000"
     borderopacity="0.25"
     inkscape:showpageshadow="2"
     inkscape:pageopacity="0.0"
     inkscape:pagecheckerboard="0"
     inkscape:deskcolor="#d1d1d1"
     inkscape:document-units="mm"
     showgrid="false"
     inkscape:zoom="0.2102413"
     inkscape:cx="-423.3231"
     inkscape:cy="563.63806"
     inkscape:window-width="2560"
     inkscape:window-height="1387"
     inkscape:window-x="0"
     inkscape:window-y="25"
     inkscape:window-maximized="0"
     inkscape:current-layer="layer1" /><defs
     id="defs7874" /><g
     inkscape:label="Layer 1"
     inkscape:groupmode="layer"
     id="layer1"><path
       d="m 28.253389,154.78927 c 0,-7.01411 5.6859,-12.7 12.7,-12.7 h 25.4 c 7.01146,0 12.7,5.68589 12.7,12.7 v 4.23333 h 50.800001 v -4.23333 c 0,-7.01411 5.68854,-12.7 12.7,-12.7 h 25.4 c 7.01146,0 12.7,5.68589 12.7,12.7 v 25.4 c 0,7.01145 -5.68854,12.7 -12.7,12.7 h -25.4 c -7.01146,0 -12.7,-5.68855 -12.7,-12.7 v -4.23334 H 79.053389 v 4.23334 c 0,0.44979 -0.0265,0.89958 -0.0794,1.08479 l 21.246041,28.54854 h 25.4 c 7.01145,0 12.7,5.68854 12.7,12.69999 v 25.4 c 0,7.01146 -5.68855,12.7 -12.7,12.7 h -25.4 c -7.011461,0 -12.700001,-5.68854 -12.700001,-12.7 v -25.4 c 0,-0.44979 0.0265,-0.89958 0.0794,-1.32292 l -21.24604,-28.3104 h -25.4 c -7.0141,0 -12.7,-5.68855 -12.7,-12.7 z"
       id="path8743"
       style="fill:#800066;stroke-width:0.264583"
       inkscape:highlight-color="#320f5b" /><path
       d="m 155.28258,103.41317 -42.33333,37.82974 c -1.64042,1.48954 -3.81,2.22249 -5.97958,2.22249 -2.16959,0 -4.33388,-0.73886 -5.98488,-2.21659 L 58.651466,103.41908 c -3.30729,-2.95544 -3.30729,-7.743282 0,-10.698722 3.30729,-2.955448 8.6651,-2.955448 11.97239,0 L 98.503001,117.64661 V 45.108089 c 0,-4.182551 3.791479,-7.353153 8.228539,-7.353153 4.43706,0 8.70479,3.170602 8.70479,7.353153 v 72.538521 l 27.88709,-24.920342 c 3.30729,-2.955442 8.6651,-2.955442 11.97239,0 3.3073,2.95545 3.29407,7.731452 -0.0132,10.686902 z"
       id="path8825"
       style="fill:#800066;stroke-width:0.250114" /></g></svg>
